<?xml version="1.0" standalone="no"?>
<!DOCTYPE svg PUBLIC "-//W3C//DTD SVG 20010904//EN"
 "http://www.w3.org/TR/2001/REC-SVG-20010904/DTD/svg10.dtd">
<svg version="1.0" xmlns="http://www.w3.org/2000/svg"
 width="500.000000pt" height="500.000000pt" viewBox="0 0 500.000000 500.000000"
 preserveAspectRatio="xMidYMid meet">

<g transform="translate(0.000000,500.000000) scale(0.100000,-0.100000)"
fill="#000000" stroke="none">
<path d="M1932 4179 c-262 -44 -479 -163 -532 -294 -20 -48 -27 -56 -60 -65
-45 -12 -134 -71 -168 -112 -86 -102 -126 -297 -103 -500 22 -186 82 -468 100
-468 5 0 37 -23 72 -51 46 -37 66 -60 71 -82 10 -50 0 -51 -53 -3 -52 47 -109
67 -138 49 -29 -18 -21 -31 35 -53 55 -23 117 -75 135 -115 5 -11 19 -38 32
-60 12 -22 35 -71 51 -108 28 -66 28 -68 10 -89 -19 -21 -19 -21 3 -9 35 18
46 14 119 -44 134 -108 252 -194 288 -211 39 -19 43 -29 22 -53 -7 -9 -19 -58
-25 -110 -6 -52 -14 -98 -18 -102 -5 -4 -84 -42 -178 -84 -324 -145 -437 -214
-522 -317 -56 -68 -107 -170 -98 -197 3 -12 -6 -58 -24 -113 -17 -51 -33 -104
-35 -118 -3 -14 -23 -99 -45 -190 -53 -221 -101 -529 -101 -651 l0 -29 345 0
345 0 6 28 c20 83 52 184 56 176 6 -10 42 -132 52 -176 l6 -28 839 0 838 0 12
103 c7 56 21 144 32 195 26 127 56 362 65 502 7 110 8 116 37 142 16 16 37 28
48 28 31 0 141 -76 331 -228 277 -222 419 -292 595 -292 106 0 169 20 214 67
57 61 77 95 99 174 33 121 28 234 -30 620 -135 894 -173 1100 -211 1135 -10 9
-19 21 -19 25 0 5 22 20 49 33 48 25 106 86 150 159 12 20 18 37 12 37 -6 0
-11 -4 -11 -10 0 -5 -22 -32 -49 -59 -27 -27 -47 -51 -45 -54 3 -2 -3 -10 -13
-18 -15 -12 -16 -12 -9 1 7 13 6 13 -6 0 -7 -8 -20 -17 -28 -19 -14 -4 -82
-18 -125 -27 -45 -9 -50 -20 -22 -54 31 -36 35 -60 10 -54 -10 2 -78 18 -151
34 -73 16 -141 34 -151 39 -13 8 -20 27 -25 70 -4 33 -13 67 -21 75 -8 7 -17
35 -20 62 -3 26 -13 68 -22 93 -9 28 -19 105 -24 191 -11 199 -14 214 -52 243
-18 14 -43 34 -56 46 -30 26 -38 27 -20 2 95 -130 100 -144 98 -323 -1 -158
17 -261 62 -359 26 -56 30 -71 19 -84 -15 -18 -15 -133 1 -558 7 -169 9 -310
6 -314 -4 -3 -35 22 -69 55 -77 75 -281 239 -365 294 -34 22 -69 51 -77 63
-10 15 -43 32 -97 50 -72 24 -92 27 -168 22 -99 -6 -154 -24 -388 -125 -90
-39 -173 -72 -185 -74 -43 -6 -31 27 28 77 73 63 176 184 221 259 38 65 83
190 83 231 0 20 6 27 30 32 26 5 28 7 14 17 -14 10 -15 34 -12 177 3 175 3
173 59 226 27 26 30 73 4 73 -24 0 -72 -59 -80 -97 -6 -32 -9 -35 -15 -18 -5
12 -2 34 7 55 34 79 37 109 25 296 -20 301 -73 466 -200 625 -142 177 -276
261 -502 313 -72 17 -279 20 -368 5z m-35 -814 c21 -100 21 -100 -7 -100 -29
0 -34 21 -44 170 l-6 90 21 -45 c11 -25 27 -76 36 -115z m185 -84 l16 -30 189
4 c124 2 211 8 255 19 59 14 73 14 123 1 31 -9 69 -14 83 -13 43 2 72 -11 65
-29 -5 -12 -3 -14 7 -8 10 6 12 4 7 -9 -4 -9 2 -60 13 -114 17 -90 23 -113 37
-152 4 -8 7 -19 8 -25 2 -5 13 -44 26 -85 34 -105 34 -288 0 -370 -59 -147
-124 -259 -211 -365 -89 -109 -118 -133 -199 -164 -84 -32 -271 -57 -344 -46
-34 5 -278 116 -297 135 -3 3 -30 25 -60 50 -30 25 -68 61 -85 80 -16 19 -40
44 -52 56 -13 12 -23 26 -23 32 0 5 -6 12 -13 15 -20 7 -123 224 -140 292 -9
33 -18 101 -22 150 -3 50 -17 128 -31 175 -14 47 -27 92 -30 101 -3 12 18 36
69 76 71 58 73 59 69 31 -5 -33 11 -37 31 -8 22 32 97 59 209 74 153 22 255
71 244 118 -2 10 0 21 5 24 5 3 9 15 9 27 1 20 2 20 13 5 7 -9 19 -30 29 -47z
m-502 -100 c0 -5 -9 -19 -20 -32 l-20 -24 17 32 c19 34 23 39 23 24z m814
-1569 c3 -9 6 -62 7 -116 3 -94 2 -100 -19 -109 -30 -14 -35 -7 -67 98 -45
149 -46 142 18 144 45 1 57 -2 61 -17z"/>
<path d="M2514 3080 c-23 -12 -49 -29 -57 -38 -24 -27 -67 -113 -67 -135 0
-18 1 -17 19 4 l19 24 11 -28 c6 -16 11 -32 11 -36 0 -5 27 -11 61 -15 52 -5
68 -2 115 20 47 22 54 29 54 55 0 42 -25 95 -50 109 -14 7 -19 15 -13 21 14
14 102 -16 134 -47 33 -31 45 -28 29 7 -32 71 -179 103 -266 59z m6 -106 c0
-19 -5 -24 -25 -24 -20 0 -25 5 -25 24 0 13 6 26 13 29 22 7 37 -4 37 -29z"/>
<path d="M1735 2949 c-59 -24 -79 -41 -112 -92 -16 -26 -21 -43 -15 -53 7 -13
11 -10 22 16 13 31 57 71 93 83 17 6 16 4 -2 -22 -24 -33 -28 -107 -8 -134 19
-27 133 -28 172 -2 17 10 37 19 45 20 19 0 26 75 10 105 -18 33 13 25 54 -15
41 -39 46 -42 46 -20 0 25 -68 92 -115 114 -56 26 -124 26 -190 0z m55 -84
c10 -12 10 -18 0 -30 -25 -30 -61 -7 -46 30 3 8 12 15 19 15 8 0 20 -7 27 -15z"/>
<path d="M2416 2626 c-9 -14 -24 -26 -32 -26 -9 0 -55 -9 -102 -21 -63 -15
-92 -18 -108 -10 -31 14 -40 -13 -14 -39 25 -25 108 -27 188 -4 81 24 120 70
93 112 -6 10 -12 7 -25 -12z"/>
<path d="M2578 2485 c-20 -13 -69 -30 -114 -39 -43 -9 -99 -22 -124 -29 -25
-8 -118 -25 -207 -38 -141 -20 -165 -21 -188 -9 -36 19 -54 0 -28 -30 61 -72
106 -108 150 -120 27 -6 58 -17 70 -22 56 -27 266 15 319 63 11 11 23 19 27
19 9 0 61 52 89 90 14 19 29 51 33 70 4 19 12 40 17 47 18 23 -9 22 -44 -2z
m-53 -85 c19 -7 19 -8 -5 -18 -22 -8 -280 -54 -369 -65 -29 -3 -32 -2 -17 8 9
7 38 16 64 19 26 4 58 11 72 16 29 12 198 48 220 49 8 0 24 -4 35 -9z"/>
<path d="M2140 2140 c0 -5 12 -10 28 -9 24 0 25 1 7 9 -27 12 -35 12 -35 0z"/>
<path d="M4466 3515 c-3 -8 -1 -15 4 -15 6 0 10 7 10 15 0 8 -2 15 -4 15 -2 0
-6 -7 -10 -15z"/>
<path d="M4690 3475 c-7 -9 -10 -18 -7 -21 3 -3 10 4 17 15 13 25 8 27 -10 6z"/>
<path d="M4416 3414 c-9 -24 -2 -26 12 -4 7 11 8 20 3 20 -5 0 -12 -7 -15 -16z"/>
<path d="M4634 3373 c-9 -15 -24 -39 -34 -53 -23 -35 -42 -70 -36 -70 9 0 99
140 93 146 -3 3 -13 -7 -23 -23z"/>
<path d="M4530 3205 c-7 -9 -11 -17 -9 -20 3 -2 10 5 17 15 14 24 10 26 -8 5z"/>
<path d="M4755 3189 c-4 -6 -5 -12 -2 -15 2 -3 7 2 10 11 7 17 1 20 -8 4z"/>
<path d="M4699 3103 c-13 -16 -12 -17 4 -4 16 13 21 21 13 21 -2 0 -10 -8 -17
-17z"/>
<path d="M4625 3003 l-18 -28 27 24 c28 26 31 31 17 31 -5 0 -17 -12 -26 -27z"/>
<path d="M4690 2780 c-6 -11 -8 -20 -6 -20 3 0 10 9 16 20 6 11 8 20 6 20 -3
0 -10 -9 -16 -20z"/>
</g>
</svg>
